<svg xmlns="http://www.w3.org/2000/svg" viewBox="0 0 1024 1024" width="1024" height="1024"><path fill="#141516" d="M256 423.32A59.73 59.73 0 0 1 285.87 371.59L560.21 213.19A24.75 24.75 0 0 1 597.33 234.63L597.33 409.77A49.07 49.07 0 0 1 572.8 452.26L408.53 547.1A49.07 49.07 0 0 0 384 589.6L384 652.66A18.35 18.35 0 0 1 356.48 668.55L280.53 624.7A49.07 49.07 0 0 1 256 582.21ZM768 600.68A59.73 59.73 0 0 1 738.13 652.41L463.79 810.81A24.75 24.75 0 0 1 426.67 789.37L426.67 614.23A49.07 49.07 0 0 1 451.2 571.74L615.47 476.9A49.07 49.07 0 0 0 640 434.4L640 371.34A18.35 18.35 0 0 1 667.52 355.45L743.47 399.3A49.07 49.07 0 0 1 768 441.79Z"/></svg>
